<svg xmlns="http://www.w3.org/2000/svg" xmlns:xlink="http://www.w3.org/1999/xlink" width="250" zoomAndPan="magnify" viewBox="0 0 187.5 74.999997" height="100" preserveAspectRatio="xMidYMid meet" version="1.0"><defs><g/></defs><path fill="#ef2d56" d="M 24.394531 31.125 C 22.085938 24.351562 23.449219 16.445312 27.894531 10.832031 C 30.578125 7.445312 34.605469 4.808594 38.925781 4.953125 C 42.015625 5.054688 44.890625 6.539062 47.441406 8.28125 C 49.992188 10.023438 52.355469 12.058594 55.085938 13.507812 C 60.53125 16.398438 66.925781 16.710938 73.085938 17.011719 C 76.050781 17.15625 79.164062 17.355469 81.675781 18.941406 C 85.683594 21.472656 86.972656 27.085938 85.457031 31.578125 C 83.9375 36.070312 80.167969 39.492188 76.007812 41.761719 C 67.738281 46.273438 57.898438 46.851562 48.492188 46.335938 C 44.484375 46.117188 40.449219 45.707031 36.632812 44.453125 C 32.820312 43.195312 29.214844 41.03125 26.808594 37.816406 C 24.398438 34.605469 23.332031 30.265625 24.398438 31.125 Z M 24.394531 31.125 " fill-opacity="1" fill-rule="nonzero"/><path fill="#2fbf71" d="M 40.375 31.59375 C 40.382812 31.640625 40.390625 31.707031 40.398438 31.753906 C 40.390625 31.699219 40.382812 31.644531 40.375 31.59375 Z M 40.375 31.59375 " fill-opacity="1" fill-rule="nonzero"/><path fill="#2fbf71" d="M 87.015625 28.308594 C 86.738281 28.027344 86.347656 27.925781 85.976562 27.835938 C 85.480469 27.71875 84.976562 27.621094 84.472656 27.527344 C 83.246094 27.308594 82.023438 27.074219 80.792969 26.855469 C 76.601562 26.109375 72.410156 25.371094 68.199219 24.734375 C 61.695312 23.753906 55.171875 22.878906 48.683594 21.785156 C 45.292969 21.183594 41.90625 20.539062 38.527344 19.867188 C 35.976562 19.367188 33.433594 18.816406 30.867188 18.390625 C 30.035156 18.246094 29.207031 18.101562 28.371094 17.984375 C 27.835938 17.910156 27.292969 17.769531 26.75 17.84375 C 26.464844 17.898438 26.1875 18.101562 26.109375 18.394531 C 26.074219 18.496094 26.074219 18.605469 26.09375 18.710938 C 26.113281 18.816406 26.136719 18.925781 26.152344 19.035156 C 26.15625 19.074219 26.164062 19.113281 26.171875 19.15625 C 26.875 21.367188 33.445312 24.457031 39.316406 25.875 C 41.875 26.492188 44.472656 26.917969 47.078125 27.308594 C 54.03125 28.324219 61.023438 29.042969 68.007812 29.800781 C 67.917969 29.894531 67.847656 30.019531 67.796875 30.171875 C 67.480469 31.628906 67.484375 33.199219 67.261719 35.222656 C 67.191406 35.980469 67.109375 36.738281 67.035156 37.496094 C 66.367188 37.472656 65.699219 37.453125 65.03125 37.433594 C 62.125 37.359375 59.21875 37.328125 56.316406 37.316406 C 56.179688 35.09375 56.054688 32.777344 55.757812 31.210938 C 55.765625 31.28125 55.777344 31.355469 55.785156 31.425781 C 55.660156 30.613281 55.574219 30.347656 55.484375 29.855469 C 55.429688 29.597656 55.386719 29.34375 55.328125 29.089844 C 55.328125 29.078125 55.328125 29.070312 55.324219 29.0625 C 55.3125 28.988281 55.300781 28.914062 55.289062 28.839844 C 55.289062 28.816406 55.285156 28.789062 55.277344 28.765625 C 55.28125 28.769531 55.28125 28.773438 55.28125 28.777344 C 55.28125 28.773438 55.28125 28.769531 55.277344 28.765625 C 55.257812 28.675781 55.214844 28.59375 55.148438 28.53125 C 55.023438 28.402344 54.835938 28.363281 54.664062 28.402344 C 54.28125 28.515625 54.285156 28.882812 54.292969 29.214844 C 54.296875 29.167969 54.304688 29.121094 54.3125 29.074219 C 54.273438 29.300781 54.273438 29.535156 54.253906 29.761719 C 54.242188 29.949219 54.226562 30.132812 54.21875 30.320312 C 54.226562 30.257812 54.234375 30.199219 54.242188 30.140625 C 53.996094 32.300781 54.195312 34.480469 54.324219 36.644531 C 54.335938 36.867188 54.351562 37.089844 54.367188 37.308594 C 50.695312 37.300781 47.023438 37.316406 43.351562 37.296875 C 43.085938 35.832031 42.8125 34.367188 42.515625 32.910156 C 42.28125 31.675781 41.9375 30.472656 41.542969 29.28125 C 41.449219 28.976562 41.355469 28.667969 41.261719 28.363281 C 41.253906 28.332031 41.230469 28.269531 41.210938 28.21875 C 41.21875 28.230469 41.222656 28.246094 41.230469 28.265625 C 41.21875 28.1875 41.183594 28.121094 41.132812 28.0625 C 41.054688 27.945312 40.914062 27.863281 40.773438 27.855469 C 40.507812 27.804688 40.242188 27.996094 40.171875 28.25 C 40.148438 28.304688 40.152344 28.394531 40.15625 28.460938 C 40.167969 28.753906 40.191406 29.050781 40.207031 29.34375 C 40.28125 30.496094 40.265625 30.71875 40.371094 31.539062 C 40.367188 31.53125 40.367188 31.527344 40.367188 31.527344 C 40.367188 31.539062 40.371094 31.550781 40.371094 31.566406 C 40.375 31.574219 40.375 31.582031 40.375 31.59375 C 40.375 31.585938 40.375 31.582031 40.375 31.574219 C 40.613281 33.3125 40.976562 35.03125 41.292969 36.757812 C 41.324219 36.933594 41.359375 37.109375 41.390625 37.28125 C 40.871094 37.277344 40.347656 37.273438 39.828125 37.265625 C 38.367188 37.25 36.910156 37.222656 35.449219 37.199219 C 34.964844 37.191406 34.484375 37.191406 34 37.1875 C 33.789062 37.195312 33.558594 37.148438 33.363281 37.25 C 32.628906 37.539062 32.839844 38.667969 33.648438 38.671875 C 36.335938 38.808594 39.023438 38.90625 41.710938 38.976562 C 42.011719 40.558594 42.320312 42.140625 42.652344 43.714844 C 42.820312 44.519531 42.960938 45.332031 43.089844 46.148438 C 43.09375 46.191406 43.101562 46.257812 43.105469 46.300781 C 43.113281 46.394531 43.128906 46.484375 43.144531 46.578125 L 43.144531 46.582031 C 43.050781 47.226562 43.863281 47.742188 44.417969 47.210938 C 44.539062 47.082031 44.609375 46.945312 44.652344 46.78125 C 44.660156 46.742188 44.664062 46.703125 44.671875 46.667969 C 44.667969 46.6875 44.664062 46.707031 44.660156 46.730469 C 44.695312 46.652344 44.691406 46.570312 44.695312 46.488281 C 44.699219 46.441406 44.707031 46.394531 44.710938 46.347656 C 44.699219 46.417969 44.691406 46.488281 44.679688 46.558594 C 44.757812 46.125 44.675781 45.671875 44.640625 45.238281 C 44.507812 43.898438 44.292969 42.570312 44.058594 41.25 C 43.921875 40.507812 43.792969 39.769531 43.660156 39.027344 C 47.269531 39.109375 50.878906 39.15625 54.492188 39.195312 C 54.617188 41.027344 54.75 42.863281 54.824219 44.699219 C 54.863281 45.949219 56.675781 45.957031 56.726562 44.699219 C 56.761719 43.695312 56.652344 42.699219 56.59375 41.699219 C 56.542969 40.871094 56.488281 40.042969 56.433594 39.214844 C 58.425781 39.234375 60.414062 39.257812 62.402344 39.28125 C 63.894531 39.300781 65.390625 39.28125 66.882812 39.234375 C 66.820312 40.105469 66.78125 40.980469 66.792969 41.855469 C 66.796875 42.339844 66.804688 42.824219 66.808594 43.308594 C 66.382812 43.398438 65.960938 43.492188 65.539062 43.585938 C 61.167969 44.542969 56.824219 45.617188 52.441406 46.507812 C 48.171875 47.449219 43.851562 48.125 39.546875 48.859375 C 39.183594 48.929688 38.820312 48.980469 38.453125 49.039062 C 38.257812 49.074219 38.046875 49.078125 37.875 49.183594 C 37.648438 49.328125 37.484375 49.601562 37.542969 49.875 C 37.5625 50.140625 37.78125 50.378906 38.039062 50.449219 C 38.246094 50.496094 38.449219 50.453125 38.65625 50.429688 C 39.257812 50.359375 39.863281 50.285156 40.464844 50.214844 C 40.867188 50.167969 41.25 50.121094 41.628906 50.074219 C 42.207031 50.007812 42.785156 49.941406 43.363281 49.875 C 53.042969 48.898438 62.78125 48.3125 72.382812 46.660156 C 73.875 46.417969 75.359375 46.152344 76.847656 45.890625 L 76.601562 45.925781 C 76.925781 45.878906 77.253906 45.820312 77.574219 45.746094 C 77.84375 45.761719 78.113281 45.65625 78.371094 45.585938 C 78.761719 45.453125 79.164062 45.308594 79.496094 45.054688 C 80.347656 44.464844 80.753906 43.46875 81.179688 42.558594 C 81.953125 40.878906 82.746094 39.207031 83.605469 37.566406 C 84.164062 36.496094 84.710938 35.417969 85.25 34.335938 C 85.386719 34.003906 85.609375 33.691406 85.714844 33.34375 C 85.832031 33.066406 85.953125 32.789062 86.070312 32.507812 C 86.167969 32.273438 86.265625 32.039062 86.363281 31.804688 C 86.363281 31.796875 86.367188 31.789062 86.375 31.777344 C 86.519531 31.457031 86.726562 30.988281 87.058594 30.167969 C 87.128906 29.976562 87.199219 29.789062 87.238281 29.59375 L 87.234375 29.609375 C 87.347656 29.167969 87.359375 28.65625 87.011719 28.308594 Z M 80.511719 33.375 C 79.09375 35.894531 77.542969 38.335938 75.910156 40.71875 C 75.753906 40.945312 75.59375 41.167969 75.433594 41.394531 C 74.035156 41.792969 72.609375 42.085938 71.183594 42.386719 C 70.125 42.609375 69.0625 42.828125 68.003906 43.054688 C 68.011719 43 68.019531 42.945312 68.027344 42.890625 C 68.019531 42.941406 68.011719 42.996094 68.003906 43.050781 C 68.007812 43.042969 68.007812 43.035156 68.011719 43.027344 C 68.148438 42.234375 68.347656 41.449219 68.503906 40.65625 C 68.652344 39.839844 68.714844 39.492188 68.761719 39.164062 C 70.417969 39.089844 72.074219 38.992188 73.730469 38.882812 C 73.839844 38.875 73.949219 38.867188 74.058594 38.859375 C 74.078125 38.859375 74.09375 38.859375 74.113281 38.855469 C 74.125 38.855469 74.132812 38.855469 74.144531 38.851562 C 74.296875 38.859375 74.445312 38.808594 74.550781 38.699219 C 74.867188 38.390625 74.636719 37.804688 74.183594 37.816406 C 72.449219 37.71875 70.710938 37.636719 68.972656 37.566406 C 69.222656 35.394531 69.507812 31.859375 69.542969 30.542969 C 69.570312 30.308594 69.519531 30.109375 69.425781 29.953125 C 69.570312 29.96875 69.714844 29.984375 69.859375 30 C 73.628906 30.390625 78.09375 30.949219 81.585938 31.382812 C 81.234375 32.050781 80.882812 32.71875 80.511719 33.378906 Z M 80.511719 33.375 " fill-opacity="1" fill-rule="nonzero"/><path fill="#2fbf71" d="M 81.4375 56.386719 C 81.230469 55.605469 80.480469 55.023438 79.675781 54.988281 C 79.324219 54.933594 78.96875 54.894531 78.609375 54.871094 C 76.757812 54.734375 74.90625 54.613281 73.054688 54.5 C 65.089844 54.027344 57.128906 53.527344 49.167969 53.058594 C 45.21875 52.851562 41.269531 52.742188 37.324219 52.523438 C 35.753906 48.128906 33.398438 41.476562 31.433594 36.242188 C 28.53125 28.378906 25.515625 20.554688 22.601562 12.695312 C 22.464844 12.335938 22.332031 11.972656 22.195312 11.613281 C 21.992188 11.007812 21.746094 10.417969 21.445312 9.851562 C 21.375 9.714844 21.398438 9.777344 21.4375 9.875 C 20.976562 8.859375 20.140625 7.953125 19.042969 7.667969 C 17.96875 7.460938 16.867188 7.480469 15.777344 7.4375 C 13.859375 7.378906 11.9375 7.355469 10.015625 7.347656 C 8.828125 7.371094 7.640625 7.402344 6.453125 7.457031 C 6.222656 7.46875 5.996094 7.480469 5.765625 7.5 C 5.699219 7.492188 5.632812 7.488281 5.566406 7.480469 C 5.464844 7.476562 5.367188 7.488281 5.273438 7.511719 C 5.203125 7.507812 5.136719 7.503906 5.066406 7.507812 C 4.71875 7.492188 4.363281 7.625 4.054688 7.792969 C 4.003906 7.816406 3.953125 7.84375 3.90625 7.875 C 3.582031 8.082031 3.351562 8.355469 3.132812 8.671875 C 3 8.941406 2.875 9.21875 2.796875 9.511719 C 2.742188 9.78125 2.699219 10.0625 2.6875 10.339844 C 2.703125 10.570312 2.746094 10.8125 2.78125 11.046875 C 2.859375 11.324219 2.972656 11.601562 3.121094 11.847656 C 3.367188 12.230469 3.699219 12.53125 4.070312 12.785156 C 4.472656 13.035156 4.925781 13.203125 5.378906 13.339844 C 7.027344 13.730469 8.742188 13.722656 10.429688 13.757812 C 12.359375 13.824219 14.292969 13.863281 16.222656 13.925781 C 16.785156 15.402344 17.347656 16.875 17.902344 18.351562 C 20.886719 26.183594 23.523438 34.140625 26.222656 42.074219 C 27.230469 45.046875 28.203125 48.035156 29.375 50.949219 C 29.320312 50.816406 29.265625 50.683594 29.210938 50.554688 C 29.519531 51.300781 29.8125 52.054688 30.121094 52.804688 C 29.691406 53.140625 29.269531 53.484375 28.859375 53.84375 C 28.972656 53.757812 29.085938 53.667969 29.203125 53.582031 C 28.550781 54.074219 27.957031 54.664062 27.378906 55.242188 C 26.921875 55.730469 26.503906 56.25 26.125 56.800781 C 25.886719 57.144531 25.695312 57.535156 25.597656 57.941406 C 25.492188 58.453125 25.539062 58.953125 25.8125 59.40625 C 25.90625 59.523438 25.984375 59.652344 26.085938 59.757812 C 26.214844 59.867188 26.347656 59.980469 26.488281 60.070312 C 26.632812 60.128906 26.773438 60.191406 26.917969 60.246094 C 27.09375 60.28125 27.273438 60.300781 27.449219 60.320312 C 28.421875 60.269531 29.285156 59.742188 30.035156 59.167969 C 31.242188 58.253906 32.382812 57.253906 33.484375 56.214844 C 33.535156 56.167969 33.585938 56.121094 33.640625 56.070312 C 33.871094 56.101562 34.101562 56.125 34.335938 56.144531 C 39.25 56.625 44.191406 56.652344 49.117188 56.9375 C 53.050781 57.148438 56.980469 57.425781 60.914062 57.664062 C 65.390625 57.933594 69.871094 58.191406 74.34375 58.476562 C 75.785156 58.566406 77.222656 58.660156 78.660156 58.765625 C 79.214844 58.792969 79.824219 58.910156 80.332031 58.640625 C 81.042969 58.402344 81.507812 57.632812 81.507812 56.898438 C 81.484375 56.726562 81.460938 56.558594 81.4375 56.390625 Z M 81.4375 56.386719 " fill-opacity="1" fill-rule="nonzero"/><path fill="#2fbf71" d="M 40.773438 65.207031 C 40.773438 65.585938 40.734375 65.964844 40.652344 66.339844 C 40.570312 66.714844 40.445312 67.078125 40.285156 67.429688 C 40.121094 67.78125 39.921875 68.117188 39.6875 68.433594 C 39.453125 68.75 39.183594 69.042969 38.886719 69.3125 C 38.585938 69.582031 38.257812 69.824219 37.90625 70.035156 C 37.554688 70.246094 37.183594 70.425781 36.792969 70.570312 C 36.398438 70.71875 35.996094 70.828125 35.582031 70.902344 C 35.164062 70.976562 34.746094 71.015625 34.320312 71.015625 C 33.898438 71.015625 33.476562 70.976562 33.0625 70.902344 C 32.648438 70.828125 32.242188 70.71875 31.851562 70.570312 C 31.460938 70.425781 31.089844 70.246094 30.738281 70.035156 C 30.382812 69.824219 30.058594 69.582031 29.757812 69.3125 C 29.457031 69.042969 29.191406 68.75 28.957031 68.433594 C 28.71875 68.117188 28.523438 67.78125 28.359375 67.429688 C 28.199219 67.078125 28.074219 66.714844 27.992188 66.339844 C 27.910156 65.964844 27.867188 65.585938 27.867188 65.207031 C 27.867188 64.824219 27.910156 64.445312 27.992188 64.074219 C 28.074219 63.699219 28.199219 63.335938 28.359375 62.984375 C 28.523438 62.632812 28.71875 62.296875 28.957031 61.980469 C 29.191406 61.664062 29.457031 61.367188 29.757812 61.097656 C 30.058594 60.828125 30.382812 60.589844 30.738281 60.375 C 31.089844 60.164062 31.460938 59.984375 31.851562 59.839844 C 32.242188 59.695312 32.648438 59.582031 33.0625 59.507812 C 33.476562 59.433594 33.898438 59.398438 34.320312 59.398438 C 34.746094 59.398438 35.164062 59.433594 35.582031 59.507812 C 35.996094 59.582031 36.398438 59.695312 36.792969 59.839844 C 37.183594 59.984375 37.554688 60.164062 37.90625 60.375 C 38.257812 60.589844 38.585938 60.828125 38.886719 61.097656 C 39.183594 61.367188 39.453125 61.664062 39.6875 61.980469 C 39.921875 62.296875 40.121094 62.632812 40.285156 62.984375 C 40.445312 63.335938 40.570312 63.699219 40.652344 64.074219 C 40.734375 64.445312 40.773438 64.824219 40.773438 65.207031 Z M 40.773438 65.207031 " fill-opacity="1" fill-rule="nonzero"/><path fill="#2fbf71" d="M 79.710938 65.207031 C 79.710938 65.585938 79.667969 65.964844 79.585938 66.339844 C 79.503906 66.714844 79.382812 67.078125 79.21875 67.429688 C 79.058594 67.78125 78.859375 68.117188 78.625 68.433594 C 78.386719 68.75 78.121094 69.042969 77.820312 69.3125 C 77.519531 69.582031 77.195312 69.824219 76.84375 70.035156 C 76.492188 70.246094 76.117188 70.425781 75.726562 70.570312 C 75.335938 70.71875 74.933594 70.828125 74.515625 70.902344 C 74.101562 70.976562 73.679688 71.015625 73.257812 71.015625 C 72.832031 71.015625 72.414062 70.976562 72 70.902344 C 71.582031 70.828125 71.179688 70.71875 70.789062 70.570312 C 70.394531 70.425781 70.023438 70.246094 69.671875 70.035156 C 69.320312 69.824219 68.992188 69.582031 68.695312 69.3125 C 68.394531 69.042969 68.128906 68.75 67.890625 68.433594 C 67.65625 68.117188 67.457031 67.78125 67.296875 67.429688 C 67.132812 67.078125 67.011719 66.714844 66.929688 66.339844 C 66.84375 65.964844 66.804688 65.585938 66.804688 65.207031 C 66.804688 64.824219 66.84375 64.445312 66.929688 64.074219 C 67.011719 63.699219 67.132812 63.335938 67.296875 62.984375 C 67.457031 62.632812 67.65625 62.296875 67.890625 61.980469 C 68.128906 61.664062 68.394531 61.367188 68.695312 61.097656 C 68.992188 60.828125 69.320312 60.589844 69.671875 60.375 C 70.023438 60.164062 70.394531 59.984375 70.789062 59.839844 C 71.179688 59.695312 71.582031 59.582031 72 59.507812 C 72.414062 59.433594 72.832031 59.398438 73.257812 59.398438 C 73.679688 59.398438 74.101562 59.433594 74.515625 59.507812 C 74.933594 59.582031 75.335938 59.695312 75.726562 59.839844 C 76.117188 59.984375 76.492188 60.164062 76.84375 60.375 C 77.195312 60.589844 77.519531 60.828125 77.820312 61.097656 C 78.121094 61.367188 78.386719 61.664062 78.625 61.980469 C 78.859375 62.296875 79.058594 62.632812 79.21875 62.984375 C 79.382812 63.335938 79.503906 63.699219 79.585938 64.074219 C 79.667969 64.445312 79.710938 64.824219 79.710938 65.207031 Z M 79.710938 65.207031 " fill-opacity="1" fill-rule="nonzero"/><g fill="#2fbf71" fill-opacity="1"><g transform="translate(93.518237, 31.301481)"><g><path d="M 11.65625 -8.140625 C 12.320312 -8.046875 12.914062 -7.859375 13.4375 -7.578125 C 13.957031 -7.296875 14.367188 -6.890625 14.671875 -6.359375 C 14.972656 -5.828125 15.125 -5.140625 15.125 -4.296875 C 15.125 -2.960938 14.695312 -1.910156 13.84375 -1.140625 C 12.988281 -0.378906 11.710938 0 10.015625 0 L 1.375 0 L 1.375 -15.796875 L 10.1875 -15.796875 C 11.3125 -15.796875 12.222656 -15.617188 12.921875 -15.265625 C 13.617188 -14.921875 14.125 -14.453125 14.4375 -13.859375 C 14.757812 -13.265625 14.921875 -12.613281 14.921875 -11.90625 C 14.921875 -10.75 14.601562 -9.878906 13.96875 -9.296875 C 13.332031 -8.722656 12.5625 -8.335938 11.65625 -8.140625 Z M 9.125 -13.0625 L 4.984375 -13.0625 L 4.984375 -9.28125 L 9 -9.28125 C 9.789062 -9.28125 10.34375 -9.453125 10.65625 -9.796875 C 10.976562 -10.148438 11.140625 -10.613281 11.140625 -11.1875 C 11.140625 -11.789062 10.988281 -12.253906 10.6875 -12.578125 C 10.382812 -12.898438 9.863281 -13.0625 9.125 -13.0625 Z M 9.21875 -2.75 C 10.019531 -2.75 10.578125 -2.941406 10.890625 -3.328125 C 11.210938 -3.722656 11.375 -4.210938 11.375 -4.796875 C 11.375 -5.429688 11.195312 -5.929688 10.84375 -6.296875 C 10.488281 -6.671875 9.875 -6.859375 9 -6.859375 L 4.984375 -6.859375 L 4.984375 -2.75 Z M 9.21875 -2.75 "/></g></g></g><g fill="#2fbf71" fill-opacity="1"><g transform="translate(108.76452, 31.301481)"><g><path d="M 4.984375 0.3125 C 3.785156 0.3125 2.828125 0 2.109375 -0.625 C 1.398438 -1.25 1.046875 -2.09375 1.046875 -3.15625 C 1.046875 -3.789062 1.15625 -4.347656 1.375 -4.828125 C 1.59375 -5.316406 1.988281 -5.726562 2.5625 -6.0625 C 3.132812 -6.394531 3.925781 -6.644531 4.9375 -6.8125 L 7.75 -7.296875 C 8.300781 -7.390625 8.679688 -7.519531 8.890625 -7.6875 C 9.109375 -7.863281 9.21875 -8.128906 9.21875 -8.484375 C 9.21875 -8.890625 9.070312 -9.21875 8.78125 -9.46875 C 8.488281 -9.726562 7.945312 -9.859375 7.15625 -9.859375 C 5.582031 -9.859375 4.769531 -9.238281 4.71875 -8 L 1.28125 -8 C 1.332031 -9.269531 1.859375 -10.300781 2.859375 -11.09375 C 3.867188 -11.882812 5.273438 -12.28125 7.078125 -12.28125 C 8.878906 -12.28125 10.222656 -11.921875 11.109375 -11.203125 C 11.992188 -10.484375 12.4375 -9.488281 12.4375 -8.21875 L 12.4375 -3.09375 C 12.4375 -2.53125 12.453125 -2 12.484375 -1.5 C 12.523438 -1.007812 12.578125 -0.507812 12.640625 0 L 9.578125 0 C 9.503906 -0.394531 9.453125 -0.796875 9.421875 -1.203125 C 9.390625 -1.609375 9.375 -2.054688 9.375 -2.546875 C 9.113281 -1.722656 8.617188 -1.039062 7.890625 -0.5 C 7.171875 0.0390625 6.203125 0.3125 4.984375 0.3125 Z M 6.171875 -2.09375 C 7.109375 -2.09375 7.847656 -2.40625 8.390625 -3.03125 C 8.941406 -3.664062 9.21875 -4.539062 9.21875 -5.65625 L 9.21875 -6.171875 C 8.914062 -5.960938 8.601562 -5.800781 8.28125 -5.6875 C 7.96875 -5.582031 7.628906 -5.492188 7.265625 -5.421875 L 6.265625 -5.171875 C 5.628906 -5.015625 5.175781 -4.8125 4.90625 -4.5625 C 4.644531 -4.320312 4.515625 -3.972656 4.515625 -3.515625 C 4.515625 -3.035156 4.671875 -2.675781 4.984375 -2.4375 C 5.304688 -2.207031 5.703125 -2.09375 6.171875 -2.09375 Z M 6.171875 -2.09375 "/></g></g></g><g fill="#2fbf71" fill-opacity="1"><g transform="translate(121.683451, 31.301481)"><g><path d="M 9.171875 -12.25 C 10.722656 -12.25 11.84375 -11.8125 12.53125 -10.9375 C 13.226562 -10.0625 13.578125 -8.847656 13.578125 -7.296875 L 13.578125 0 L 10.0625 0 L 10.0625 -6.75 C 10.0625 -7.695312 9.867188 -8.375 9.484375 -8.78125 C 9.097656 -9.195312 8.539062 -9.40625 7.8125 -9.40625 C 6.875 -9.40625 6.148438 -9.085938 5.640625 -8.453125 C 5.140625 -7.816406 4.890625 -6.796875 4.890625 -5.390625 L 4.890625 0 L 1.375 0 L 1.375 -11.875 L 4.890625 -11.875 L 4.890625 -9.546875 C 5.273438 -10.359375 5.8125 -11.007812 6.5 -11.5 C 7.195312 -12 8.085938 -12.25 9.171875 -12.25 Z M 9.171875 -12.25 "/></g></g></g><g fill="#2fbf71" fill-opacity="1"><g transform="translate(135.647318, 31.301481)"><g><path d="M 10.609375 -11.875 L 14.125 -11.875 L 14.125 -0.46875 C 14.125 1.34375 13.617188 2.707031 12.609375 3.625 C 11.597656 4.550781 9.890625 5.015625 7.484375 5.015625 C 5.453125 5.015625 3.921875 4.597656 2.890625 3.765625 C 1.867188 2.929688 1.316406 1.847656 1.234375 0.515625 L 4.671875 0.515625 C 4.753906 1.117188 5.019531 1.609375 5.46875 1.984375 C 5.925781 2.359375 6.644531 2.546875 7.625 2.546875 C 8.65625 2.546875 9.410156 2.34375 9.890625 1.9375 C 10.367188 1.53125 10.609375 0.859375 10.609375 -0.078125 L 10.609375 -2.234375 C 10.210938 -1.628906 9.675781 -1.164062 9 -0.84375 C 8.320312 -0.519531 7.484375 -0.359375 6.484375 -0.359375 C 5.203125 -0.359375 4.148438 -0.625 3.328125 -1.15625 C 2.515625 -1.6875 1.914062 -2.398438 1.53125 -3.296875 C 1.144531 -4.203125 0.953125 -5.191406 0.953125 -6.265625 C 0.953125 -7.378906 1.144531 -8.382812 1.53125 -9.28125 C 1.914062 -10.1875 2.515625 -10.90625 3.328125 -11.4375 C 4.148438 -11.96875 5.203125 -12.234375 6.484375 -12.234375 C 7.484375 -12.234375 8.320312 -12.0625 9 -11.71875 C 9.675781 -11.375 10.210938 -10.90625 10.609375 -10.3125 Z M 7.59375 -2.9375 C 8.6875 -2.9375 9.460938 -3.207031 9.921875 -3.75 C 10.378906 -4.289062 10.609375 -5.113281 10.609375 -6.21875 C 10.609375 -7.34375 10.378906 -8.171875 9.921875 -8.703125 C 9.460938 -9.234375 8.6875 -9.5 7.59375 -9.5 C 6.488281 -9.5 5.691406 -9.25 5.203125 -8.75 C 4.710938 -8.25 4.46875 -7.40625 4.46875 -6.21875 C 4.46875 -5.03125 4.710938 -4.1875 5.203125 -3.6875 C 5.691406 -3.1875 6.488281 -2.9375 7.59375 -2.9375 Z M 7.59375 -2.9375 "/></g></g></g><g fill="#2fbf71" fill-opacity="1"><g transform="translate(150.276139, 31.301481)"><g><path d="M 1.375 0 L 1.375 -16.625 L 4.890625 -16.625 L 4.890625 0 Z M 1.375 0 "/></g></g></g><g fill="#2fbf71" fill-opacity="1"><g transform="translate(155.690565, 31.301481)"><g><path d="M 4.984375 0.3125 C 3.785156 0.3125 2.828125 0 2.109375 -0.625 C 1.398438 -1.25 1.046875 -2.09375 1.046875 -3.15625 C 1.046875 -3.789062 1.15625 -4.347656 1.375 -4.828125 C 1.59375 -5.316406 1.988281 -5.726562 2.5625 -6.0625 C 3.132812 -6.394531 3.925781 -6.644531 4.9375 -6.8125 L 7.75 -7.296875 C 8.300781 -7.390625 8.679688 -7.519531 8.890625 -7.6875 C 9.109375 -7.863281 9.21875 -8.128906 9.21875 -8.484375 C 9.21875 -8.890625 9.070312 -9.21875 8.78125 -9.46875 C 8.488281 -9.726562 7.945312 -9.859375 7.15625 -9.859375 C 5.582031 -9.859375 4.769531 -9.238281 4.71875 -8 L 1.28125 -8 C 1.332031 -9.269531 1.859375 -10.300781 2.859375 -11.09375 C 3.867188 -11.882812 5.273438 -12.28125 7.078125 -12.28125 C 8.878906 -12.28125 10.222656 -11.921875 11.109375 -11.203125 C 11.992188 -10.484375 12.4375 -9.488281 12.4375 -8.21875 L 12.4375 -3.09375 C 12.4375 -2.53125 12.453125 -2 12.484375 -1.5 C 12.523438 -1.007812 12.578125 -0.507812 12.640625 0 L 9.578125 0 C 9.503906 -0.394531 9.453125 -0.796875 9.421875 -1.203125 C 9.390625 -1.609375 9.375 -2.054688 9.375 -2.546875 C 9.113281 -1.722656 8.617188 -1.039062 7.890625 -0.5 C 7.171875 0.0390625 6.203125 0.3125 4.984375 0.3125 Z M 6.171875 -2.09375 C 7.109375 -2.09375 7.847656 -2.40625 8.390625 -3.03125 C 8.941406 -3.664062 9.21875 -4.539062 9.21875 -5.65625 L 9.21875 -6.171875 C 8.914062 -5.960938 8.601562 -5.800781 8.28125 -5.6875 C 7.96875 -5.582031 7.628906 -5.492188 7.265625 -5.421875 L 6.265625 -5.171875 C 5.628906 -5.015625 5.175781 -4.8125 4.90625 -4.5625 C 4.644531 -4.320312 4.515625 -3.972656 4.515625 -3.515625 C 4.515625 -3.035156 4.671875 -2.675781 4.984375 -2.4375 C 5.304688 -2.207031 5.703125 -2.09375 6.171875 -2.09375 Z M 6.171875 -2.09375 "/></g></g></g><g fill="#2fbf71" fill-opacity="1"><g transform="translate(93.518237, 56.120259)"><g><path d="M 9.078125 -12.25 C 10.367188 -12.25 11.414062 -11.957031 12.21875 -11.375 C 13.03125 -10.800781 13.625 -10.035156 14 -9.078125 C 14.375 -8.117188 14.5625 -7.082031 14.5625 -5.96875 C 14.5625 -4.820312 14.375 -3.765625 14 -2.796875 C 13.625 -1.835938 13.03125 -1.066406 12.21875 -0.484375 C 11.414062 0.0859375 10.367188 0.375 9.078125 0.375 C 8.054688 0.375 7.195312 0.191406 6.5 -0.171875 C 5.8125 -0.546875 5.257812 -1.054688 4.84375 -1.703125 L 4.84375 0 L 1.328125 0 L 1.328125 -16.625 L 4.84375 -16.625 L 4.84375 -10.140625 C 5.257812 -10.804688 5.8125 -11.320312 6.5 -11.6875 C 7.195312 -12.0625 8.054688 -12.25 9.078125 -12.25 Z M 8 -2.375 C 9.125 -2.375 9.90625 -2.660156 10.34375 -3.234375 C 10.789062 -3.816406 11.015625 -4.71875 11.015625 -5.9375 C 11.015625 -7.175781 10.789062 -8.078125 10.34375 -8.640625 C 9.90625 -9.210938 9.125 -9.5 8 -9.5 C 6.894531 -9.5 6.09375 -9.207031 5.59375 -8.625 C 5.09375 -8.050781 4.84375 -7.15625 4.84375 -5.9375 C 4.84375 -4.726562 5.09375 -3.832031 5.59375 -3.25 C 6.09375 -2.664062 6.894531 -2.375 8 -2.375 Z M 8 -2.375 "/></g></g></g><g fill="#2fbf71" fill-opacity="1"><g transform="translate(111.258928, 56.120259)"><g><path d="M 4.984375 0.3125 C 3.785156 0.3125 2.828125 0 2.109375 -0.625 C 1.398438 -1.25 1.046875 -2.09375 1.046875 -3.15625 C 1.046875 -3.789062 1.15625 -4.347656 1.375 -4.828125 C 1.59375 -5.316406 1.988281 -5.726562 2.5625 -6.0625 C 3.132812 -6.394531 3.925781 -6.644531 4.9375 -6.8125 L 7.75 -7.296875 C 8.300781 -7.390625 8.679688 -7.519531 8.890625 -7.6875 C 9.109375 -7.863281 9.21875 -8.128906 9.21875 -8.484375 C 9.21875 -8.890625 9.070312 -9.21875 8.78125 -9.46875 C 8.488281 -9.726562 7.945312 -9.859375 7.15625 -9.859375 C 5.582031 -9.859375 4.769531 -9.238281 4.71875 -8 L 1.28125 -8 C 1.332031 -9.269531 1.859375 -10.300781 2.859375 -11.09375 C 3.867188 -11.882812 5.273438 -12.28125 7.078125 -12.28125 C 8.878906 -12.28125 10.222656 -11.921875 11.109375 -11.203125 C 11.992188 -10.484375 12.4375 -9.488281 12.4375 -8.21875 L 12.4375 -3.09375 C 12.4375 -2.53125 12.453125 -2 12.484375 -1.5 C 12.523438 -1.007812 12.578125 -0.507812 12.640625 0 L 9.578125 0 C 9.503906 -0.394531 9.453125 -0.796875 9.421875 -1.203125 C 9.390625 -1.609375 9.375 -2.054688 9.375 -2.546875 C 9.113281 -1.722656 8.617188 -1.039062 7.890625 -0.5 C 7.171875 0.0390625 6.203125 0.3125 4.984375 0.3125 Z M 6.171875 -2.09375 C 7.109375 -2.09375 7.847656 -2.40625 8.390625 -3.03125 C 8.941406 -3.664062 9.21875 -4.539062 9.21875 -5.65625 L 9.21875 -6.171875 C 8.914062 -5.960938 8.601562 -5.800781 8.28125 -5.6875 C 7.96875 -5.582031 7.628906 -5.492188 7.265625 -5.421875 L 6.265625 -5.171875 C 5.628906 -5.015625 5.175781 -4.8125 4.90625 -4.5625 C 4.644531 -4.320312 4.515625 -3.972656 4.515625 -3.515625 C 4.515625 -3.035156 4.671875 -2.675781 4.984375 -2.4375 C 5.304688 -2.207031 5.703125 -2.09375 6.171875 -2.09375 Z M 6.171875 -2.09375 "/></g></g></g><g fill="#2fbf71" fill-opacity="1"><g transform="translate(127.337227, 56.120259)"><g><path d="M 5.203125 -2.59375 L 12.09375 -2.59375 L 12.09375 0 L 0.953125 0 L 0.953125 -2.59375 L 7.859375 -9.3125 L 1.046875 -9.3125 L 1.046875 -11.875 L 12.015625 -11.875 L 12.015625 -9.3125 Z M 5.203125 -2.59375 "/></g></g></g><g fill="#2fbf71" fill-opacity="1"><g transform="translate(142.631825, 56.120259)"><g><path d="M 4.984375 0.3125 C 3.785156 0.3125 2.828125 0 2.109375 -0.625 C 1.398438 -1.25 1.046875 -2.09375 1.046875 -3.15625 C 1.046875 -3.789062 1.15625 -4.347656 1.375 -4.828125 C 1.59375 -5.316406 1.988281 -5.726562 2.5625 -6.0625 C 3.132812 -6.394531 3.925781 -6.644531 4.9375 -6.8125 L 7.75 -7.296875 C 8.300781 -7.390625 8.679688 -7.519531 8.890625 -7.6875 C 9.109375 -7.863281 9.21875 -8.128906 9.21875 -8.484375 C 9.21875 -8.890625 9.070312 -9.21875 8.78125 -9.46875 C 8.488281 -9.726562 7.945312 -9.859375 7.15625 -9.859375 C 5.582031 -9.859375 4.769531 -9.238281 4.71875 -8 L 1.28125 -8 C 1.332031 -9.269531 1.859375 -10.300781 2.859375 -11.09375 C 3.867188 -11.882812 5.273438 -12.28125 7.078125 -12.28125 C 8.878906 -12.28125 10.222656 -11.921875 11.109375 -11.203125 C 11.992188 -10.484375 12.4375 -9.488281 12.4375 -8.21875 L 12.4375 -3.09375 C 12.4375 -2.53125 12.453125 -2 12.484375 -1.5 C 12.523438 -1.007812 12.578125 -0.507812 12.640625 0 L 9.578125 0 C 9.503906 -0.394531 9.453125 -0.796875 9.421875 -1.203125 C 9.390625 -1.609375 9.375 -2.054688 9.375 -2.546875 C 9.113281 -1.722656 8.617188 -1.039062 7.890625 -0.5 C 7.171875 0.0390625 6.203125 0.3125 4.984375 0.3125 Z M 6.171875 -2.09375 C 7.109375 -2.09375 7.847656 -2.40625 8.390625 -3.03125 C 8.941406 -3.664062 9.21875 -4.539062 9.21875 -5.65625 L 9.21875 -6.171875 C 8.914062 -5.960938 8.601562 -5.800781 8.28125 -5.6875 C 7.96875 -5.582031 7.628906 -5.492188 7.265625 -5.421875 L 6.265625 -5.171875 C 5.628906 -5.015625 5.175781 -4.8125 4.90625 -4.5625 C 4.644531 -4.320312 4.515625 -3.972656 4.515625 -3.515625 C 4.515625 -3.035156 4.671875 -2.675781 4.984375 -2.4375 C 5.304688 -2.207031 5.703125 -2.09375 6.171875 -2.09375 Z M 6.171875 -2.09375 "/></g></g></g><g fill="#2fbf71" fill-opacity="1"><g transform="translate(158.710126, 56.120259)"><g><path d="M 4.984375 0.3125 C 3.785156 0.3125 2.828125 0 2.109375 -0.625 C 1.398438 -1.25 1.046875 -2.09375 1.046875 -3.15625 C 1.046875 -3.789062 1.15625 -4.347656 1.375 -4.828125 C 1.59375 -5.316406 1.988281 -5.726562 2.5625 -6.0625 C 3.132812 -6.394531 3.925781 -6.644531 4.9375 -6.8125 L 7.75 -7.296875 C 8.300781 -7.390625 8.679688 -7.519531 8.890625 -7.6875 C 9.109375 -7.863281 9.21875 -8.128906 9.21875 -8.484375 C 9.21875 -8.890625 9.070312 -9.21875 8.78125 -9.46875 C 8.488281 -9.726562 7.945312 -9.859375 7.15625 -9.859375 C 5.582031 -9.859375 4.769531 -9.238281 4.71875 -8 L 1.28125 -8 C 1.332031 -9.269531 1.859375 -10.300781 2.859375 -11.09375 C 3.867188 -11.882812 5.273438 -12.28125 7.078125 -12.28125 C 8.878906 -12.28125 10.222656 -11.921875 11.109375 -11.203125 C 11.992188 -10.484375 12.4375 -9.488281 12.4375 -8.21875 L 12.4375 -3.09375 C 12.4375 -2.53125 12.453125 -2 12.484375 -1.5 C 12.523438 -1.007812 12.578125 -0.507812 12.640625 0 L 9.578125 0 C 9.503906 -0.394531 9.453125 -0.796875 9.421875 -1.203125 C 9.390625 -1.609375 9.375 -2.054688 9.375 -2.546875 C 9.113281 -1.722656 8.617188 -1.039062 7.890625 -0.5 C 7.171875 0.0390625 6.203125 0.3125 4.984375 0.3125 Z M 6.171875 -2.09375 C 7.109375 -2.09375 7.847656 -2.40625 8.390625 -3.03125 C 8.941406 -3.664062 9.21875 -4.539062 9.21875 -5.65625 L 9.21875 -6.171875 C 8.914062 -5.960938 8.601562 -5.800781 8.28125 -5.6875 C 7.96875 -5.582031 7.628906 -5.492188 7.265625 -5.421875 L 6.265625 -5.171875 C 5.628906 -5.015625 5.175781 -4.8125 4.90625 -4.5625 C 4.644531 -4.320312 4.515625 -3.972656 4.515625 -3.515625 C 4.515625 -3.035156 4.671875 -2.675781 4.984375 -2.4375 C 5.304688 -2.207031 5.703125 -2.09375 6.171875 -2.09375 Z M 6.171875 -2.09375 "/></g></g></g><g fill="#2fbf71" fill-opacity="1"><g transform="translate(174.788428, 56.120259)"><g><path d="M 8.4375 -12.0625 L 9.21875 -12.0625 L 9.21875 -8.640625 L 8.046875 -8.640625 C 6.878906 -8.640625 6.0625 -8.316406 5.59375 -7.671875 C 5.125 -7.023438 4.890625 -6.023438 4.890625 -4.671875 L 4.890625 0 L 1.375 0 L 1.375 -11.875 L 4.796875 -11.875 L 4.796875 -9.328125 C 5.078125 -10.171875 5.503906 -10.835938 6.078125 -11.328125 C 6.648438 -11.816406 7.4375 -12.0625 8.4375 -12.0625 Z M 8.4375 -12.0625 "/></g></g></g></svg>